<svg xmlns="http://www.w3.org/2000/svg" viewBox="0 0 100 100"><defs><style>.cls-1{fill:#f15a24;}.cls-2{fill:#c8c8c8;}.cls-3{fill:#ed1c24;}.cls-4{fill:#158e68;}</style></defs><title>Simple Electronics Scratch Icon LED</title><g id="Layer_1" data-name="Layer 1"><path class="cls-1" d="M30.56,19.44V50H52.78V19.44A11.12,11.12,0,0,0,41.67,8.33h0A11.11,11.11,0,0,0,30.56,19.44Z"/><rect class="cls-2" x="31.25" y="50" width="6.25" height="41.67"/><rect class="cls-2" x="45.83" y="50" width="6.25" height="33.33"/><rect class="cls-3" x="29.17" y="41.67" width="25" height="8.33"/><path class="cls-4" d="M89.51,74.68l-.22-.39a4.91,4.91,0,0,0-2.86-4.82c.47-.12.95-.22,1.08-.8.8-.2,1-.57,1-1,.21-.14.91-.52.84-1.19a1,1,0,0,0,.5-1.09c.42-.46.53-.83.35-1.18A.87.87,0,0,0,90.32,63c.38-.67,0-1.4-1-1.28-.42-.61-1.34-.47-1.48-.47-.16-.2-.37-.36-1-.28a1.24,1.24,0,0,0-1.37-.13c-.57-.44-1-.09-1.39,0-.69-.22-.85.08-1.19.2-.76-.15-1,.19-1.35.54h-.42a4.66,4.66,0,0,0-1.91,2.67,4.76,4.76,0,0,0-1.91-2.67h-.43c-.36-.35-.59-.69-1.35-.54-.34-.12-.5-.42-1.19-.2a2.67,2.67,0,0,0-.86-.26h0a.88.88,0,0,0-.53.21,1.24,1.24,0,0,0-1.37.13c-.65-.08-.86.08-1,.28-.15,0-1.07-.14-1.49.47-1.06-.12-1.4.61-1,1.28a.88.88,0,0,0,.07,1.27c-.18.35-.07.72.35,1.18a1,1,0,0,0,.5,1.09c-.07.67.63,1.06.84,1.19.08.39.25.76,1,1,.13.58.62.68,1.08.8a4.89,4.89,0,0,0-2.85,4.82l-.23.39A4.68,4.68,0,0,0,68,81.81,13.15,13.15,0,0,0,68.63,84,5.26,5.26,0,0,0,72,88.12a11.4,11.4,0,0,0,3.21,1.77,5.44,5.44,0,0,0,4,1.72h.06a5.42,5.42,0,0,0,3.94-1.72,11.26,11.26,0,0,0,3.21-1.77A5.27,5.27,0,0,0,89.71,84a13.18,13.18,0,0,0,.67-2.14A4.68,4.68,0,0,0,89.51,74.68Zm-1.36-.48c-.09,1.13-6.07-3.94-5-4.11C85.91,69.63,88.25,71.25,88.15,74.2Zm-2.64,5.64a3.66,3.66,0,0,1-4.84-1.38,3.39,3.39,0,0,1,.6-4.84A3.67,3.67,0,0,1,86.12,75,3.4,3.4,0,0,1,85.51,79.84ZM81.34,62.38a.84.84,0,0,0,.18.46,9.2,9.2,0,0,1,1-1.05c0,.2-.1.42.15.57a3,3,0,0,1,1-.8c-.2.34,0,.44.07.58a3.39,3.39,0,0,1,1.19-.75c-.16.19-.38.38-.14.6a3.47,3.47,0,0,1,1.42-.54c-.18.19-.54.38-.32.57a6.61,6.61,0,0,1,1.36-.33c-.24.19-.44.38-.25.53a3,3,0,0,1,1.62-.15l-.37.36a10.46,10.46,0,0,0,1.47,0,2.88,2.88,0,0,0-.57,1.11c.06.06.36,0,.64,0-.29.59-.79.74-.91,1a.75.75,0,0,0,.69,0,4.66,4.66,0,0,1-1,1.05c.09.06.24.09.6,0a5.63,5.63,0,0,1-1.15.91c.08.09.35.09.61.09a5.79,5.79,0,0,1-1.43.86.85.85,0,0,0,.61.13,4.94,4.94,0,0,1-1.5.6.53.53,0,0,0,.43.25c-.58.32-1.42.18-1.66.34a.73.73,0,0,0,.41.35c-.94.06-3.52,0-4-2a20.49,20.49,0,0,1,5.76-3.79A19.85,19.85,0,0,0,81,66.73C78.88,65.77,80.32,63.34,81.34,62.38Zm-2.11,6.94h0c1.48,0,3.32,1.07,3.31,2.1s-1.29,1.64-3.3,1.63-3.3-.92-3.29-1.8S77.55,69.28,79.23,69.32Zm-7.56-.78a.55.55,0,0,0,.44-.25,4.94,4.94,0,0,1-1.5-.6.85.85,0,0,0,.61-.13,5.79,5.79,0,0,1-1.43-.86c.25,0,.53,0,.61-.09a5.37,5.37,0,0,1-1.15-.91c.36,0,.51,0,.59,0a4.84,4.84,0,0,1-1-1.05.75.75,0,0,0,.69,0c-.12-.26-.62-.41-.91-1,.28,0,.58.06.64,0a2.88,2.88,0,0,0-.57-1.11,13.24,13.24,0,0,0,1.46,0l-.37-.37a3,3,0,0,1,1.62.15c.2-.15,0-.34-.24-.53a6.61,6.61,0,0,1,1.36.33c.21-.19-.14-.38-.32-.57a3.47,3.47,0,0,1,1.42.54c.24-.22,0-.41-.14-.6a3.39,3.39,0,0,1,1.19.75c.11-.14.27-.24.07-.58a3,3,0,0,1,1,.8c.25-.15.15-.37.15-.57a9.2,9.2,0,0,1,1,1.05c.07,0,.13-.21.18-.46,1,1,2.46,3.39.37,4.35a19.68,19.68,0,0,0-6.26-3.24,20.52,20.52,0,0,1,5.75,3.78c-.49,1.93-3.07,2-4,2a.72.72,0,0,0,.42-.35C73.1,68.72,72.26,68.86,71.67,68.54ZM75.37,70c1,.17-5,5.24-5,4.11C70.23,71.16,72.56,69.55,75.37,70ZM69,81.32a3.69,3.69,0,0,1,.77-6C71.41,74.94,70.34,81.89,69,81.32Zm5.58,5.94c-.82.48-2.81.28-4.22-1.69-1-1.66-.83-3.35-.16-3.84,1-.59,2.55.21,3.74,1.55S75.47,86.63,74.6,87.26ZM73,80a3.39,3.39,0,0,1-.61-4.84,3.66,3.66,0,0,1,4.84-1.38,3.39,3.39,0,0,1,.61,4.84A3.66,3.66,0,0,1,73,80Zm6.28,10.63c-1.8.08-3.57-1.43-3.55-2,0-.76,2.2-1.36,3.65-1.33s3.41.46,3.42,1.15S81,90.67,79.26,90.64Zm3.61-7.57a3.65,3.65,0,0,1-7.26,0v0a3.65,3.65,0,0,1,7.26,0Zm5.06,2.59c-1.56,2.1-3.66,2.18-4.45,1.59-.82-.75-.19-3.08.93-4.36h0c1.29-1.4,2.66-2.33,3.62-1.61A3.92,3.92,0,0,1,87.93,85.66Zm1.4-4.43c-1.32.57-2.4-6.38-.77-6A3.7,3.7,0,0,1,89.33,81.23Z"/><polygon class="cls-4" points="71.18 63.48 71.19 63.49 71.18 63.48 71.18 63.48"/><polygon class="cls-4" points="87.23 63.48 87.23 63.48 87.24 63.48 87.23 63.48"/></g></svg>