<?xml version="1.0" encoding="UTF-8" standalone="no"?>
<svg
   xmlns:dc="http://purl.org/dc/elements/1.1/"
   xmlns:cc="http://creativecommons.org/ns#"
   xmlns:rdf="http://www.w3.org/1999/02/22-rdf-syntax-ns#"
   xmlns:svg="http://www.w3.org/2000/svg"
   xmlns="http://www.w3.org/2000/svg"
   xmlns:sodipodi="http://sodipodi.sourceforge.net/DTD/sodipodi-0.dtd"
   xmlns:inkscape="http://www.inkscape.org/namespaces/inkscape"
   version="1.1"
   width="800"
   height="800"
   id="svg3410"
   inkscape:version="0.91 r13725"
   sodipodi:docname="raspberry-pi-logom.svg">
  <metadata
     id="metadata3444">
    <rdf:RDF>
      <cc:Work
         rdf:about="">
        <dc:format>image/svg+xml</dc:format>
        <dc:type
           rdf:resource="http://purl.org/dc/dcmitype/StillImage" />
        <dc:title></dc:title>
      </cc:Work>
    </rdf:RDF>
  </metadata>
  <defs
     id="defs3442" />
  <sodipodi:namedview
     pagecolor="#ffffff"
     bordercolor="#666666"
     borderopacity="1"
     objecttolerance="10"
     gridtolerance="10"
     guidetolerance="10"
     inkscape:pageopacity="0"
     inkscape:pageshadow="2"
     inkscape:window-width="1381"
     inkscape:window-height="965"
     id="namedview3440"
     showgrid="false"
     fit-margin-left="75"
     fit-margin-right="75"
     inkscape:zoom="0.78862048"
     inkscape:cx="320.8655"
     inkscape:cy="360"
     inkscape:window-x="410"
     inkscape:window-y="0"
     inkscape:window-maximized="0"
     inkscape:current-layer="svg3410" />
  <path
     d="m 267.42619,43.615138 c -3.6193,0.112319 -7.51715,1.449327 -11.9375,4.9375 -10.82696,-4.1763 -21.32709,-5.627189 -30.71875,2.875 -14.49386,-1.880758 -19.21029,2.000744 -22.78125,6.53125 -3.18255,-0.06587 -23.81885,-3.27207 -33.28125,10.84375 -23.78165,-2.81342 -31.29678,13.98788 -22.78125,29.65625 -4.85691,7.518952 -9.88951,14.947232 1.46875,29.281252 -4.01801,7.98351 -1.52743,16.64403 7.9375,27.125 -2.49786,11.2226 2.41207,19.14086 11.21875,25.3125 -1.64709,15.35756 14.0835,24.28743 18.78125,27.46875 1.80367,8.94868 5.56291,17.3927 23.53125,22.0625 2.96323,13.3361 13.76206,15.63906 24.21875,18.4375 -34.56193,20.08954 -64.20067,46.52266 -64,111.375 l -5.0625,9.03125 c -39.63087,24.10229 -75.285299,101.56626 -19.53125,164.53125 3.64187,19.70838 9.74959,33.86396 15.1875,49.53125 8.13383,63.13058 61.21763,92.69161 75.21875,96.1875 20.51653,15.62812 42.36818,30.45672 71.9375,40.84375 27.87515,28.74946 58.07388,39.7064 88.4375,39.6875 0.44515,-2.8e-4 0.89853,0.005 1.34375,0 30.36363,0.0189 60.56235,-10.93804 88.4375,-39.6875 29.56932,-10.38703 51.42097,-25.21563 71.9375,-40.84375 14.00112,-3.49589 67.08492,-33.05692 75.21875,-96.1875 5.43791,-15.66729 11.54562,-29.82287 15.1875,-49.53125 55.75404,-62.96499 20.09961,-140.42896 -19.53125,-164.53125 l -5.0625,-9.03125 c 0.20067,-64.85234 -29.43807,-91.28546 -64,-111.375 10.45669,-2.79844 21.25552,-5.1014 24.21875,-18.4375 17.96834,-4.6698 21.72758,-13.11382 23.53125,-22.0625 4.69775,-3.18132 20.42834,-12.11119 18.78125,-27.46875 8.80668,-6.17164 13.71661,-14.0899 11.21875,-25.3125 9.46494,-10.48097 11.9555,-19.14149 7.9375,-27.125 11.35825,-14.33402 6.32566,-21.7623 1.46875,-29.281252 8.51553,-15.66837 1.0004,-32.46967 -22.78125,-29.65625 -9.4624,-14.11582 -30.0987,-10.909615 -33.28125,-10.84375 -3.57096,-4.530506 -8.28739,-8.412008 -22.78125,-6.53125 -9.39166,-8.502189 -19.89179,-7.0513 -30.71875,-2.875 -12.8592,-10.147413 -21.37226,-2.013296 -31.09375,1.0625 -15.57385,-5.087778 -19.13302,1.880908 -26.78125,4.71875 -16.97525,-3.588076 -22.1356,4.223532 -30.28125,12.46875 l -9.46875,-0.1875 c -25.61054,15.09311 -38.33378,45.825502 -42.84375,61.625002 -4.51206,-15.80198 -17.20647,-46.534542 -42.8125,-61.625002 l -9.46875,0.1875 c -8.14565,-8.245218 -13.306,-16.056827 -30.28125,-12.46875 -7.64823,-2.837842 -11.2074,-9.806527 -26.78125,-4.71875 -6.37973,-2.018491 -12.24667,-6.214428 -19.15625,-6 z"
     style="fill:#000000"
     id="path3412"
     inkscape:connector-curvature="0" />
  <path
     d="m 216.44303,110.01447 c 67.94767,35.03136 107.44689,63.36897 129.08717,87.50447 -11.08235,44.41759 -68.89638,46.44464 -90.03559,45.19858 4.32842,-2.01474 7.93988,-4.42778 9.22051,-8.13574 -5.30449,-3.76981 -24.11289,-0.39719 -37.24363,-7.77416 5.04407,-1.04499 7.40348,-2.06302 9.76289,-5.78542 -12.40571,-3.9567 -25.76862,-7.36642 -33.62775,-13.92116 4.24125,0.0524 8.20116,0.9488 13.74037,-2.89271 -11.1117,-5.98819 -22.96911,-10.73351 -32.18139,-19.88738 5.74521,-0.14063 11.93945,-0.0568 13.74037,-2.16953 -10.17044,-6.30068 -18.75124,-13.30787 -25.85359,-20.97215 8.03998,0.97052 11.43528,0.13478 13.37878,-1.26556 -7.6878,-7.87419 -17.41756,-14.52319 -22.05691,-24.22644 5.9696,2.05748 11.43125,2.84506 15.36752,-0.18079 -2.61237,-5.89346 -13.80542,-9.36962 -20.24897,-23.14168 6.28436,0.60938 12.94961,1.37111 14.28275,0 -2.9223,-11.88856 -7.92745,-18.570032 -12.83639,-25.492002 13.45004,-0.19973 33.82775,0.0523 32.90457,-1.08477 l -8.31654,-8.49733 c 13.13761,-3.53725 26.58065,0.56816 36.33966,3.61588 4.38186,-3.45768 -0.0776,-7.82998 -5.42383,-12.29401 11.16496,1.49064 21.25382,4.05739 30.37345,7.59336 4.87238,-4.39933 -3.16389,-8.79866 -7.05098,-13.19799 17.24936,3.27257 24.55716,7.87068 31.81981,12.47481 5.26935,-5.0508 0.30166,-9.3433 -3.2543,-13.740369 13.00566,4.817049 19.70478,11.035549 26.75756,17.175459 2.39119,-3.22705 6.07494,-5.5924 1.62715,-13.37878 9.23416,5.32273 16.18926,11.59506 21.33374,18.62182 5.71336,-3.63794 3.40387,-8.61302 3.43509,-13.19799 9.59665,7.80652 15.68687,16.11395 23.14168,24.22645 1.50169,-1.09344 2.81661,-4.80171 3.97747,-10.66687 22.89539,22.211812 55.24591,78.158242 8.31654,100.340862 -39.91877,-32.94716 -87.61613,-56.88753 -140.47721,-74.84886 z"
     style="fill:#75a928"
     id="path3414"
     inkscape:connector-curvature="0" />
  <path
     d="m 576.97606,110.01447 c -67.94767,35.03136 -107.44689,63.36897 -129.08717,87.50447 11.08235,44.41759 68.89638,46.44464 90.03559,45.19858 -4.32842,-2.01474 -7.93988,-4.42778 -9.22051,-8.13574 5.30449,-3.76981 24.11289,-0.39719 37.24363,-7.77416 -5.04407,-1.04499 -7.40348,-2.06302 -9.76289,-5.78542 12.40571,-3.9567 25.76862,-7.36642 33.62775,-13.92116 -4.24126,0.0524 -8.20116,0.9488 -13.74037,-2.89271 11.11169,-5.98819 22.96911,-10.73351 32.18139,-19.88738 -5.74521,-0.14063 -11.93945,-0.0568 -13.74037,-2.16953 10.17044,-6.30068 18.75124,-13.30787 25.85359,-20.97215 -8.03998,0.97052 -11.43528,0.13478 -13.37878,-1.26556 7.68779,-7.87419 17.41756,-14.52319 22.05691,-24.22644 -5.96961,2.05748 -11.43125,2.84506 -15.36752,-0.18079 2.61237,-5.89346 13.80541,-9.36962 20.24897,-23.14168 -6.28436,0.60938 -12.94961,1.37111 -14.28276,0 2.92231,-11.88856 7.92746,-18.570022 12.8364,-25.492002 -13.45004,-0.19973 -33.82775,0.0524 -32.90457,-1.08477 l 8.31654,-8.49733 c -13.13762,-3.53725 -26.58065,0.56816 -36.33966,3.61588 -4.38186,-3.45768 0.0776,-7.82998 5.42383,-12.29401 -11.16496,1.49064 -21.25382,4.05739 -30.37345,7.59336 -4.87238,-4.39933 3.16389,-8.79866 7.05098,-13.19799 -17.24936,3.27257 -24.55716,7.87068 -31.81981,12.47481 -5.26935,-5.0508 -0.30166,-9.3433 3.2543,-13.740369 -13.00566,4.817049 -19.70478,11.035549 -26.75756,17.175459 -2.39119,-3.22705 -6.07494,-5.5924 -1.62715,-13.37878 -9.23416,5.32273 -16.18926,11.59506 -21.33374,18.62182 -5.71336,-3.63794 -3.40387,-8.61302 -3.43509,-13.19799 -9.59665,7.80652 -15.68687,16.11395 -23.14168,24.22645 -1.50169,-1.09344 -2.81661,-4.80171 -3.97747,-10.66687 -22.89539,22.211812 -55.24591,78.158242 -8.31654,100.340862 39.91877,-32.94716 87.61613,-56.88753 140.47721,-74.84886 z"
     style="fill:#75a928"
     id="path3416"
     inkscape:connector-curvature="0" />
  <path
     d="m 478.99753,562.31993 a 81.390111,75.051762 0 0 1 -162.78022,0 81.390111,75.051762 0 1 1 162.78022,0 z"
     style="fill:#bc1142"
     id="path3418"
     inkscape:connector-curvature="0" />
  <path
     d="M 350.50521,347.92131 A 72.998839,86.129674 34.034226 0 1 255.53737,491.63357 72.998839,86.129674 34.034226 1 1 350.50521,347.92131 Z"
     style="fill:#bc1142"
     id="path3420"
     inkscape:connector-curvature="0" />
  <path
     d="M 441.53739,343.92131 A 86.129674,72.998839 55.965774 0 0 536.50523,487.63357 86.129674,72.998839 55.965774 1 0 441.53739,343.92131 Z"
     style="fill:#bc1142"
     id="path3422"
     inkscape:connector-curvature="0" />
  <path
     d="m 181.96144,384.04669 c 36.41422,-9.75692 12.29159,150.63651 -17.33338,137.47577 -32.58677,-26.21268 -43.08307,-102.97543 17.33338,-137.47577 z"
     style="fill:#bc1142"
     id="path3424"
     inkscape:connector-curvature="0" />
  <path
     d="m 602.72947,382.04669 c -36.41422,-9.75692 -12.2916,150.63651 17.33338,137.47577 32.58677,-26.21268 43.08307,-102.97543 -17.33338,-137.47577 z"
     style="fill:#bc1142"
     id="path3426"
     inkscape:connector-curvature="0" />
  <path
     d="m 479.02277,262.61229 c 62.83486,-10.61013 115.11594,26.72229 113.01138,94.85796 -2.06693,26.12112 -136.15872,-90.96907 -113.01138,-94.85796 z"
     style="fill:#bc1142"
     id="path3428"
     inkscape:connector-curvature="0" />
  <path
     d="m 305.41094,260.61229 c -62.83486,-10.61013 -115.11594,26.72229 -113.01138,94.85796 2.06693,26.12112 136.15872,-90.96907 113.01138,-94.85796 z"
     style="fill:#bc1142"
     id="path3430"
     inkscape:connector-curvature="0" />
  <path
     d="m 395.67051,244.71457 c -37.50259,-0.97548 -73.49548,27.83418 -73.58158,44.54443 -0.10462,20.30426 29.6512,41.09266 73.83726,41.62035 45.12305,0.32321 73.91561,-16.64049 74.0611,-37.59409 0.16484,-23.73996 -41.03879,-48.93744 -74.31678,-48.57069 z"
     style="fill:#bc1142"
     id="path3432"
     inkscape:connector-curvature="0" />
  <path
     d="m 397.96056,661.07564 c 32.69744,-1.42711 76.57083,10.53196 76.6568,26.39598 0.5427,15.4052 -39.78969,50.21055 -78.82634,49.53765 -40.42729,1.74391 -80.06908,-33.11559 -79.54951,-45.19859 -0.60506,-17.71593 49.226,-31.54796 81.71905,-30.73504 z"
     style="fill:#bc1142"
     id="path3434"
     inkscape:connector-curvature="0" />
  <path
     d="m 277.18993,567.06258 c 23.2791,28.04573 33.89066,77.31899 14.46355,91.84353 -18.37917,11.08784 -63.01228,6.52162 -94.73624,-39.05157 -21.39505,-38.24168 -18.63758,-77.15663 -3.61589,-88.58924 22.46443,-13.68429 57.17343,4.79902 83.88858,35.79728 z"
     style="fill:#bc1142"
     id="path3436"
     inkscape:connector-curvature="0" />
  <path
     d="m 514.07209,558.17066 c -25.18682,29.50165 -39.21227,83.30951 -20.83785,100.6428 17.56828,13.46361 64.7292,11.58162 99.56566,-36.75574 25.29599,-32.46471 16.82013,-86.68225 2.37077,-101.07511 -21.46408,-16.60213 -52.27691,4.64489 -81.09858,37.18805 z"
     style="fill:#bc1142"
     id="path3438"
     inkscape:connector-curvature="0" />
</svg>
