<svg xmlns="http://www.w3.org/2000/svg" viewBox="0 0 100 100"><defs><style>.cls-1{fill:#357c53;}.cls-2{fill:#333;}.cls-3{fill:#fff;}.cls-4{fill:#c8c8c8;}.cls-5{fill:#736357;}.cls-6{fill:#d9ac53;}</style></defs><title>Sense HAT Scratch Icon</title><g id="Layer_1" data-name="Layer 1"><path class="cls-1" d="M96,8H4a4,4,0,0,0-4,4V33a2,2,0,0,0,2,2H6.15a2,2,0,0,1,2,2V63a2,2,0,0,1-2,2H2a2,2,0,0,0-2,2V88a4,4,0,0,0,4,4H96a4,4,0,0,0,4-4V12A4,4,0,0,0,96,8ZM5.5,90A3.5,3.5,0,1,1,9,86.5,3.5,3.5,0,0,1,5.5,90Zm0-73A3.5,3.5,0,1,1,9,13.5,3.5,3.5,0,0,1,5.5,17Zm89,73A3.5,3.5,0,1,1,98,86.5,3.5,3.5,0,0,1,94.5,90Zm0-73A3.5,3.5,0,1,1,98,13.5,3.5,3.5,0,0,1,94.5,17Z"/><rect class="cls-2" x="10" y="10" width="80" height="7"/><rect class="cls-3" x="11" y="21" width="6" height="6"/><circle class="cls-4" cx="14" cy="24" r="2.75"/><rect class="cls-5" x="12" y="11" width="1" height="1"/><rect class="cls-5" x="12" y="15" width="1" height="1"/><rect class="cls-5" x="16" y="11" width="1" height="1"/><rect class="cls-5" x="16" y="15" width="1" height="1"/><rect class="cls-5" x="20" y="11" width="1" height="1"/><rect class="cls-5" x="20" y="15" width="1" height="1"/><rect class="cls-5" x="24" y="11" width="1" height="1"/><rect class="cls-5" x="24" y="15" width="1" height="1"/><rect class="cls-5" x="28" y="11" width="1" height="1"/><rect class="cls-5" x="28" y="15" width="1" height="1"/><rect class="cls-5" x="32" y="11" width="1" height="1"/><rect class="cls-5" x="32" y="15" width="1" height="1"/><rect class="cls-5" x="36" y="11" width="1" height="1"/><rect class="cls-5" x="36" y="15" width="1" height="1"/><rect class="cls-5" x="40" y="11" width="1" height="1"/><rect class="cls-5" x="40" y="15" width="1" height="1"/><rect class="cls-5" x="44" y="11" width="1" height="1"/><rect class="cls-5" x="44" y="15" width="1" height="1"/><rect class="cls-5" x="48" y="11" width="1" height="1"/><rect class="cls-5" x="48" y="15" width="1" height="1"/><rect class="cls-5" x="52" y="11" width="1" height="1"/><rect class="cls-5" x="52" y="15" width="1" height="1"/><rect class="cls-5" x="56" y="11" width="1" height="1"/><rect class="cls-5" x="56" y="15" width="1" height="1"/><rect class="cls-5" x="60" y="11" width="1" height="1"/><rect class="cls-5" x="60" y="15" width="1" height="1"/><rect class="cls-5" x="64" y="11" width="1" height="1"/><rect class="cls-5" x="64" y="15" width="1" height="1"/><rect class="cls-5" x="68" y="11" width="1" height="1"/><rect class="cls-5" x="68" y="15" width="1" height="1"/><rect class="cls-5" x="72" y="11" width="1" height="1"/><rect class="cls-5" x="72" y="15" width="1" height="1"/><rect class="cls-5" x="76" y="11" width="1" height="1"/><rect class="cls-5" x="76" y="15" width="1" height="1"/><rect class="cls-5" x="80" y="11" width="1" height="1"/><rect class="cls-5" x="80" y="15" width="1" height="1"/><rect class="cls-5" x="84" y="11" width="1" height="1"/><rect class="cls-5" x="84" y="15" width="1" height="1"/><rect class="cls-5" x="88" y="11" width="1" height="1"/><rect class="cls-5" x="88" y="15" width="1" height="1"/><rect class="cls-2" x="33" y="80" width="9" height="9"/><rect class="cls-2" x="82" y="27" width="8" height="8"/><rect class="cls-2" x="69" y="25" width="7" height="11"/><rect class="cls-2" x="70" y="47" width="6" height="4"/><rect class="cls-2" x="91" y="45" width="4" height="4"/><rect class="cls-2" x="90" y="54" width="5" height="5"/><rect class="cls-2" x="78" y="62" width="7" height="5"/><rect class="cls-4" x="75.6" y="76.69" width="10.76" height="10.76" rx="2.17" transform="translate(-34.31 81.3) rotate(-45)"/><circle class="cls-2" cx="81" cy="82" r="3"/><path class="cls-6" d="M94.5,18A4.5,4.5,0,1,0,90,13.5,4.49,4.49,0,0,0,94.5,18Zm0-6.75a2.25,2.25,0,1,1-2.25,2.25A2.25,2.25,0,0,1,94.5,11.25Z"/><rect class="cls-3" x="18" y="21" width="6" height="6"/><circle class="cls-4" cx="21" cy="24" r="2.75"/><rect class="cls-3" x="25" y="21" width="6" height="6"/><circle class="cls-4" cx="28" cy="24" r="2.75"/><rect class="cls-3" x="32" y="21" width="6" height="6"/><circle class="cls-4" cx="35" cy="24" r="2.75"/><rect class="cls-3" x="39" y="21" width="6" height="6"/><circle class="cls-4" cx="42" cy="24" r="2.75"/><rect class="cls-3" x="46" y="21" width="6" height="6"/><circle class="cls-4" cx="49" cy="24" r="2.75"/><rect class="cls-3" x="53" y="21" width="6" height="6"/><circle class="cls-4" cx="56" cy="24" r="2.75"/><rect class="cls-3" x="60" y="21" width="6" height="6"/><circle class="cls-4" cx="63" cy="24" r="2.75"/><rect class="cls-3" x="11" y="28" width="6" height="6"/><circle class="cls-4" cx="14" cy="31" r="2.75"/><rect class="cls-3" x="18" y="28" width="6" height="6"/><circle class="cls-4" cx="21" cy="31" r="2.75"/><rect class="cls-3" x="25" y="28" width="6" height="6"/><circle class="cls-4" cx="28" cy="31" r="2.75"/><rect class="cls-3" x="32" y="28" width="6" height="6"/><circle class="cls-4" cx="35" cy="31" r="2.75"/><rect class="cls-3" x="39" y="28" width="6" height="6"/><circle class="cls-4" cx="42" cy="31" r="2.75"/><rect class="cls-3" x="46" y="28" width="6" height="6"/><circle class="cls-4" cx="49" cy="31" r="2.75"/><rect class="cls-3" x="53" y="28" width="6" height="6"/><circle class="cls-4" cx="56" cy="31" r="2.75"/><rect class="cls-3" x="60" y="28" width="6" height="6"/><circle class="cls-4" cx="63" cy="31" r="2.75"/><rect class="cls-3" x="11" y="35" width="6" height="6"/><circle class="cls-4" cx="14" cy="38" r="2.75"/><rect class="cls-3" x="18" y="35" width="6" height="6"/><circle class="cls-4" cx="21" cy="38" r="2.75"/><rect class="cls-3" x="25" y="35" width="6" height="6"/><circle class="cls-4" cx="28" cy="38" r="2.75"/><rect class="cls-3" x="32" y="35" width="6" height="6"/><circle class="cls-4" cx="35" cy="38" r="2.75"/><rect class="cls-3" x="39" y="35" width="6" height="6"/><circle class="cls-4" cx="42" cy="38" r="2.75"/><rect class="cls-3" x="46" y="35" width="6" height="6"/><circle class="cls-4" cx="49" cy="38" r="2.75"/><rect class="cls-3" x="53" y="35" width="6" height="6"/><circle class="cls-4" cx="56" cy="38" r="2.75"/><rect class="cls-3" x="60" y="35" width="6" height="6"/><circle class="cls-4" cx="63" cy="38" r="2.75"/><rect class="cls-3" x="11" y="42" width="6" height="6"/><circle class="cls-4" cx="14" cy="45" r="2.75"/><rect class="cls-3" x="18" y="42" width="6" height="6"/><circle class="cls-4" cx="21" cy="45" r="2.75"/><rect class="cls-3" x="25" y="42" width="6" height="6"/><circle class="cls-4" cx="28" cy="45" r="2.75"/><rect class="cls-3" x="32" y="42" width="6" height="6"/><circle class="cls-4" cx="35" cy="45" r="2.75"/><rect class="cls-3" x="39" y="42" width="6" height="6"/><circle class="cls-4" cx="42" cy="45" r="2.75"/><rect class="cls-3" x="46" y="42" width="6" height="6"/><circle class="cls-4" cx="49" cy="45" r="2.75"/><rect class="cls-3" x="53" y="42" width="6" height="6"/><circle class="cls-4" cx="56" cy="45" r="2.75"/><rect class="cls-3" x="60" y="42" width="6" height="6"/><circle class="cls-4" cx="63" cy="45" r="2.75"/><rect class="cls-3" x="11" y="49" width="6" height="6"/><circle class="cls-4" cx="14" cy="52" r="2.75"/><rect class="cls-3" x="18" y="49" width="6" height="6"/><circle class="cls-4" cx="21" cy="52" r="2.75"/><rect class="cls-3" x="25" y="49" width="6" height="6"/><circle class="cls-4" cx="28" cy="52" r="2.75"/><rect class="cls-3" x="32" y="49" width="6" height="6"/><circle class="cls-4" cx="35" cy="52" r="2.75"/><rect class="cls-3" x="39" y="49" width="6" height="6"/><circle class="cls-4" cx="42" cy="52" r="2.75"/><rect class="cls-3" x="46" y="49" width="6" height="6"/><circle class="cls-4" cx="49" cy="52" r="2.75"/><rect class="cls-3" x="53" y="49" width="6" height="6"/><circle class="cls-4" cx="56" cy="52" r="2.75"/><rect class="cls-3" x="60" y="49" width="6" height="6"/><circle class="cls-4" cx="63" cy="52" r="2.75"/><rect class="cls-3" x="11" y="56" width="6" height="6"/><circle class="cls-4" cx="14" cy="59" r="2.75"/><rect class="cls-3" x="18" y="56" width="6" height="6"/><circle class="cls-4" cx="21" cy="59" r="2.75"/><rect class="cls-3" x="25" y="56" width="6" height="6"/><circle class="cls-4" cx="28" cy="59" r="2.75"/><rect class="cls-3" x="32" y="56" width="6" height="6"/><circle class="cls-4" cx="35" cy="59" r="2.75"/><rect class="cls-3" x="39" y="56" width="6" height="6"/><circle class="cls-4" cx="42" cy="59" r="2.75"/><rect class="cls-3" x="46" y="56" width="6" height="6"/><circle class="cls-4" cx="49" cy="59" r="2.75"/><rect class="cls-3" x="53" y="56" width="6" height="6"/><circle class="cls-4" cx="56" cy="59" r="2.75"/><rect class="cls-3" x="60" y="56" width="6" height="6"/><circle class="cls-4" cx="63" cy="59" r="2.75"/><rect class="cls-3" x="11" y="63" width="6" height="6"/><circle class="cls-4" cx="14" cy="66" r="2.75"/><rect class="cls-3" x="18" y="63" width="6" height="6"/><circle class="cls-4" cx="21" cy="66" r="2.75"/><rect class="cls-3" x="25" y="63" width="6" height="6"/><circle class="cls-4" cx="28" cy="66" r="2.75"/><rect class="cls-3" x="32" y="63" width="6" height="6"/><circle class="cls-4" cx="35" cy="66" r="2.75"/><rect class="cls-3" x="39" y="63" width="6" height="6"/><circle class="cls-4" cx="42" cy="66" r="2.75"/><rect class="cls-3" x="46" y="63" width="6" height="6"/><circle class="cls-4" cx="49" cy="66" r="2.75"/><rect class="cls-3" x="53" y="63" width="6" height="6"/><circle class="cls-4" cx="56" cy="66" r="2.75"/><rect class="cls-3" x="60" y="63" width="6" height="6"/><circle class="cls-4" cx="63" cy="66" r="2.75"/><rect class="cls-3" x="11" y="70" width="6" height="6"/><circle class="cls-4" cx="14" cy="73" r="2.75"/><rect class="cls-3" x="18" y="70" width="6" height="6"/><circle class="cls-4" cx="21" cy="73" r="2.75"/><rect class="cls-3" x="25" y="70" width="6" height="6"/><circle class="cls-4" cx="28" cy="73" r="2.75"/><rect class="cls-3" x="32" y="70" width="6" height="6"/><circle class="cls-4" cx="35" cy="73" r="2.75"/><rect class="cls-3" x="39" y="70" width="6" height="6"/><circle class="cls-4" cx="42" cy="73" r="2.75"/><rect class="cls-3" x="46" y="70" width="6" height="6"/><circle class="cls-4" cx="49" cy="73" r="2.75"/><rect class="cls-3" x="53" y="70" width="6" height="6"/><circle class="cls-4" cx="56" cy="73" r="2.75"/><rect class="cls-3" x="60" y="70" width="6" height="6"/><circle class="cls-4" cx="63" cy="73" r="2.75"/><path class="cls-6" d="M5.5,18A4.5,4.5,0,1,0,1,13.5,4.49,4.49,0,0,0,5.5,18Zm0-6.75A2.25,2.25,0,1,1,3.25,13.5,2.25,2.25,0,0,1,5.5,11.25Z"/><path class="cls-6" d="M94.5,91A4.5,4.5,0,1,0,90,86.5,4.49,4.49,0,0,0,94.5,91Zm0-6.75a2.25,2.25,0,1,1-2.25,2.25A2.25,2.25,0,0,1,94.5,84.25Z"/><path class="cls-6" d="M5.5,91A4.5,4.5,0,1,0,1,86.5,4.49,4.49,0,0,0,5.5,91Zm0-6.75A2.25,2.25,0,1,1,3.25,86.5,2.25,2.25,0,0,1,5.5,84.25Z"/></g></svg>