<?xml version="1.0" encoding="UTF-8"?>
<svg width="1024px" height="1024px" viewBox="0 0 1024 1024" version="1.1" xmlns="http://www.w3.org/2000/svg" xmlns:xlink="http://www.w3.org/1999/xlink">
    <title>Scratch</title>
    <defs>
        <path d="M923.575,304.563 C923.091,286.61 922.032,268.503 918.839,250.75 C915.793057,232.962208 910.110869,215.728248 901.98,199.617 C885.473311,167.233513 859.136165,140.908618 826.745,124.417 C810.615437,116.284872 793.363394,110.603397 775.558,107.56 C757.803,104.372 739.691,103.315 721.738,102.83 C713.495,102.607 705.253,102.513 697.008,102.462 C687.22,102.402 677.432,102.407 667.644,102.407 L553.997,102 L468.997,102 L357.358,102.407 C347.551,102.407 337.744,102.402 327.937,102.462 C319.675,102.513 311.417,102.607 303.158,102.83 C285.164,103.315 267.011,104.373 249.214,107.565 C231.387406,110.607447 214.112853,116.285981 197.958,124.414 C165.51749,140.888948 139.127608,167.214069 122.573,199.614 C114.422083,215.730387 108.72582,232.97456 105.673,250.775 C102.473,268.521 101.418,286.622 100.931,304.567 C100.709,312.804 100.613,321.043 100.563,329.283 C100.503,339.067 100,351.22 100,361.003 L100,521.177 L100.508,632.606 C100.508,642.406 100.508,652.198 100.563,661.993 C100.613,670.245 100.709,678.493 100.932,686.744 C101.418,704.72 102.479,722.853 105.678,740.63 C108.730359,758.441807 114.423374,775.698474 122.569,791.83 C139.112662,824.261339 165.500893,850.621215 197.95,867.13 C214.112329,875.273732 231.398255,880.962908 249.238,884.01 C257.644,885.519 266.129,886.548 274.638,887.265 C285.805821,888.244963 296.040521,893.895438 302.82,902.824 L340.836,952.601 C355.970454,972.418047 379.479743,984.045 404.415,984.045 L619.572,984.045 C644.507257,984.045 668.016546,972.418047 683.151,952.601 L721.243,902.724 C728.093893,893.804615 738.40264,888.20495 749.614,887.313 C758.314,886.593 766.987,885.551 775.578,884.006 C793.375689,880.957764 810.618895,875.270809 826.738,867.133 C859.140861,850.609081 885.479346,824.249242 901.977,791.833 C910.113009,775.689118 915.797455,758.422771 918.843,740.603 C922.033,722.833 923.091,704.703 923.576,686.738 C923.799,678.489 923.894,670.238 923.943,661.987 C923.999,652.187 923.999,642.396 923.999,632.6 L923.999,358.627 C923.999,348.845 923.999,339.062 923.943,329.279 C923.894,321.039 923.799,312.799 923.575,304.563 Z" id="path-1"></path>
        <filter x="-2.4%" y="-1.1%" width="104.9%" height="104.5%" filterUnits="objectBoundingBox" id="filter-2">
            <feOffset dx="0" dy="10" in="SourceAlpha" result="shadowOffsetOuter1"></feOffset>
            <feGaussianBlur stdDeviation="5" in="shadowOffsetOuter1" result="shadowBlurOuter1"></feGaussianBlur>
            <feColorMatrix values="0 0 0 0 0   0 0 0 0 0   0 0 0 0 0  0 0 0 0.3 0" type="matrix" in="shadowBlurOuter1"></feColorMatrix>
        </filter>
        <path d="M553.974,134.323 L667.574,134.73 L671.696,134.73 C680.255,134.73 688.619,134.73 696.854,134.785 C706.602,134.845 714.023,134.955 720.918,135.142 C735.718,135.542 753.118,136.358 769.947,139.38 C784.667104,141.88299 798.933142,146.561159 812.277,153.261 C838.638691,166.682818 860.073973,188.106548 873.51,214.461 C880.207101,227.786897 884.884946,242.034776 887.39,256.737 C890.417,273.571 891.233,290.959 891.632,305.754 C891.821,312.713 891.932,320.126 891.989,329.785 C892.044,339.476 892.044,349.376 892.044,358.949 L892.044,582.927 C892.044,592.514 892.044,602.427 891.989,612.127 C891.931,621.799 891.822,629.227 891.633,636.205 C891.233,651.015 890.417,668.427 887.392,685.278 C884.88602,700.012538 880.204214,714.292854 873.5,727.651 C860.070135,754.038854 838.630788,775.497454 812.255,788.951 C798.92189,795.653414 784.665849,800.33499 769.955,802.842 C762.94,804.104 755.436,805.056 747.016,805.753 C726.791704,807.409032 708.209158,817.534961 695.854,833.632 L657.762,883.51 C648.653275,895.365849 634.565859,902.332929 619.615,902.376 L404.459,902.376 C389.50807,902.333233 375.420527,895.366091 366.312,883.51 L328.3,833.729 C316.02916,817.632194 297.538598,807.457048 277.374,805.705 C269.158,805.013 261.819,804.075 254.934,802.839 C240.178544,800.331946 225.877639,795.645749 212.5,788.934 C186.079944,775.492048 164.594231,754.030139 151.123,727.625 C144.41244,714.279691 139.725108,700.010089 137.215,685.285 C134.181,668.429 133.363,651.014 132.963,636.202 C132.774,629.211 132.663,621.784 132.605,612.122 C132.55,603.007 132.55,593.69 132.55,584.68 L132.55,582.78 L132.042,471.432 L132.042,361.322 C132.042,356.467 132.184,350.663 132.321,345.051 C132.446,339.927 132.575,334.629 132.605,329.797 C132.663,320.155 132.773,312.738 132.962,305.754 C133.362,290.962 134.181,273.574 137.209,256.767 C139.718729,242.058733 144.406205,227.806556 151.117,214.48 C164.597257,188.107113 186.081576,166.679504 212.49,153.269 C225.864933,146.568145 240.160347,141.889505 254.909,139.386 C271.786,136.359 289.229,135.542 304.067,135.142 C310.976,134.955 318.413,134.842 328.178,134.785 C336.432,134.734 344.813,134.73 353.388,134.73 L357.52,134.73 L469.106,134.323 L553.975,134.323" id="path-3"></path>
        <filter x="-1.3%" y="-1.3%" width="102.6%" height="102.6%" filterUnits="objectBoundingBox" id="filter-4">
            <feGaussianBlur stdDeviation="5" in="SourceAlpha" result="shadowBlurInner1"></feGaussianBlur>
            <feOffset dx="0" dy="10" in="shadowBlurInner1" result="shadowOffsetInner1"></feOffset>
            <feComposite in="shadowOffsetInner1" in2="SourceAlpha" operator="arithmetic" k2="-1" k3="1" result="shadowInnerInner1"></feComposite>
            <feColorMatrix values="0 0 0 0 0   0 0 0 0 0   0 0 0 0 0  0 0 0 0.2 0" type="matrix" in="shadowInnerInner1"></feColorMatrix>
        </filter>
        <path d="M553.974,134.323 L667.574,134.73 L671.696,134.73 C680.255,134.73 688.619,134.73 696.854,134.785 C706.602,134.845 714.023,134.955 720.918,135.142 C735.718,135.542 753.118,136.358 769.947,139.38 C784.667104,141.88299 798.933142,146.561159 812.277,153.261 C838.638691,166.682818 860.073973,188.106548 873.51,214.461 C880.207101,227.786897 884.884946,242.034776 887.39,256.737 C890.417,273.571 891.233,290.959 891.632,305.754 C891.821,312.713 891.932,320.126 891.989,329.785 C892.044,339.476 892.044,349.376 892.044,358.949 L892.044,582.927 C892.044,592.514 892.044,602.427 891.989,612.127 C891.931,621.799 891.822,629.227 891.633,636.205 C891.233,651.015 890.417,668.427 887.392,685.278 C884.88602,700.012538 880.204214,714.292854 873.5,727.651 C860.070135,754.038854 838.630788,775.497454 812.255,788.951 C798.92189,795.653414 784.665849,800.33499 769.955,802.842 C762.94,804.104 755.436,805.056 747.016,805.753 C726.791704,807.409032 708.209158,817.534961 695.854,833.632 L657.762,883.51 C648.653275,895.365849 634.565859,902.332929 619.615,902.376 L404.459,902.376 C389.50807,902.333233 375.420527,895.366091 366.312,883.51 L328.3,833.729 C316.02916,817.632194 297.538598,807.457048 277.374,805.705 C269.158,805.013 261.819,804.075 254.934,802.839 C240.178544,800.331946 225.877639,795.645749 212.5,788.934 C186.079944,775.492048 164.594231,754.030139 151.123,727.625 C144.41244,714.279691 139.725108,700.010089 137.215,685.285 C134.181,668.429 133.363,651.014 132.963,636.202 C132.774,629.211 132.663,621.784 132.605,612.122 C132.55,603.007 132.55,593.69 132.55,584.68 L132.55,582.78 L132.042,471.432 L132.042,361.322 C132.042,356.467 132.184,350.663 132.321,345.051 C132.446,339.927 132.575,334.629 132.605,329.797 C132.663,320.155 132.773,312.738 132.962,305.754 C133.362,290.962 134.181,273.574 137.209,256.767 C139.718729,242.058733 144.406205,227.806556 151.117,214.48 C164.597257,188.107113 186.081576,166.679504 212.49,153.269 C225.864933,146.568145 240.160347,141.889505 254.909,139.386 C271.786,136.359 289.229,135.542 304.067,135.142 C310.976,134.955 318.413,134.842 328.178,134.785 C336.432,134.734 344.813,134.73 353.388,134.73 L357.52,134.73 L469.106,134.323 L553.975,134.323" id="path-5"></path>
        <filter x="-1.3%" y="-1.3%" width="102.6%" height="102.6%" filterUnits="objectBoundingBox" id="filter-6">
            <feGaussianBlur stdDeviation="5" in="SourceAlpha" result="shadowBlurInner1"></feGaussianBlur>
            <feOffset dx="0" dy="-10" in="shadowBlurInner1" result="shadowOffsetInner1"></feOffset>
            <feComposite in="shadowOffsetInner1" in2="SourceAlpha" operator="arithmetic" k2="-1" k3="1" result="shadowInnerInner1"></feComposite>
            <feColorMatrix values="0 0 0 0 1   0 0 0 0 1   0 0 0 0 1  0 0 0 0.35 0" type="matrix" in="shadowInnerInner1"></feColorMatrix>
        </filter>
        <filter x="-23.3%" y="-16.3%" width="146.6%" height="132.7%" filterUnits="objectBoundingBox" id="filter-7">
            <feOffset dx="0" dy="30" in="SourceAlpha" result="shadowOffsetOuter1"></feOffset>
            <feGaussianBlur stdDeviation="10" in="shadowOffsetOuter1" result="shadowBlurOuter1"></feGaussianBlur>
            <feColorMatrix values="0 0 0 0 0   0 0 0 0 0   0 0 0 0 0  0 0 0 0.2 0" type="matrix" in="shadowBlurOuter1" result="shadowMatrixOuter1"></feColorMatrix>
            <feMerge>
                <feMergeNode in="shadowMatrixOuter1"></feMergeNode>
                <feMergeNode in="SourceGraphic"></feMergeNode>
            </feMerge>
        </filter>
    </defs>
    <g id="Page-1" stroke="none" stroke-width="1" fill="none" fill-rule="evenodd">
        <rect id="Rectangle" x="0" y="0" width="1024" height="1024"></rect>
        <g id="Path">
            <use fill="black" fill-opacity="1" filter="url(#filter-2)" xlink:href="#path-1"></use>
            <use fill="#CF8B17" fill-rule="evenodd" xlink:href="#path-1"></use>
        </g>
        <path d="M923.617,304.886 C923.133,286.933 922.074,268.826 918.881,251.073 C915.835057,233.285208 910.152869,216.051248 902.022,199.94 C885.516098,167.55594 859.178737,141.230831 826.787,124.74 C810.657437,116.607872 793.405394,110.926397 775.6,107.883 C757.845,104.695 739.734,103.638 721.781,103.153 C713.538,102.93 705.295,102.836 697.05,102.785 C687.262,102.725 677.474,102.73 667.686,102.73 L554.039,102.323 L469.039,102.323 L357.4,102.73 C347.593,102.73 337.786,102.725 327.979,102.785 C319.717,102.836 311.459,102.93 303.2,103.153 C285.205,103.638 267.052,104.696 249.255,107.888 C231.428724,110.930442 214.1545,116.608979 198,124.737 C165.558915,141.211497 139.168587,167.536711 122.614,199.937 C114.463083,216.053387 108.76682,233.29756 105.714,251.098 C102.514,268.844 101.459,286.945 100.972,304.89 C100.75,313.127 100.654,321.366 100.604,329.606 C100.544,339.39 100.041,351.543 100.041,361.326 L100.041,471.5 L100.549,582.928 C100.549,592.728 100.549,602.52 100.604,612.316 C100.654,620.568 100.75,628.816 100.973,637.067 C101.459,655.043 102.52,673.176 105.719,690.953 C108.771359,708.764807 114.464374,726.021474 122.61,742.153 C139.153922,774.584491 165.542522,800.944385 197.992,817.453 C214.153982,825.596721 231.439576,831.285899 249.279,834.333 C257.685,835.842 266.171,836.871 274.679,837.589 C285.847217,838.568568 296.082376,844.219096 302.862,853.148 L340.877,902.925 C356.011454,922.742047 379.520743,934.369 404.456,934.369 L619.615,934.369 C644.550257,934.369 668.059546,922.742047 683.194,902.925 L721.286,853.048 C728.135914,844.127982 738.444668,838.528115 749.656,837.637 C758.356,836.917 767.029,835.875 775.62,834.329 C793.417689,831.280764 810.660895,825.593809 826.78,817.456 C859.18327,800.932643 885.521909,774.57265 902.019,742.156 C910.155009,726.012118 915.839455,708.745771 918.885,690.926 C922.075,673.156 923.133,655.026 923.618,637.061 C923.841,628.811 923.936,620.561 923.985,612.31 C924.041,602.51 924.041,592.718 924.041,582.922 L924.041,358.95 C924.041,349.168 924.041,339.385 923.985,329.602 C923.936,321.362 923.841,313.122 923.617,304.886 Z" id="Path" fill="#FFAB19"></path>
        <path d="M553.974,134.323 L667.574,134.73 L671.696,134.73 C680.255,134.73 688.619,134.73 696.854,134.785 C706.602,134.845 714.023,134.955 720.918,135.142 C735.718,135.542 753.118,136.358 769.947,139.38 C784.667104,141.88299 798.933142,146.561159 812.277,153.261 C838.638691,166.682818 860.073973,188.106548 873.51,214.461 C880.207101,227.786897 884.884946,242.034776 887.39,256.737 C890.417,273.571 891.233,290.959 891.632,305.754 C891.821,312.713 891.932,320.126 891.989,329.785 C892.044,339.476 892.044,349.376 892.044,358.949 L892.044,582.927 C892.044,592.514 892.044,602.427 891.989,612.127 C891.931,621.799 891.822,629.227 891.633,636.205 C891.233,651.015 890.417,668.427 887.392,685.278 C884.88602,700.012538 880.204214,714.292854 873.5,727.651 C860.070135,754.038854 838.630788,775.497454 812.255,788.951 C798.92189,795.653414 784.665849,800.33499 769.955,802.842 C762.94,804.104 755.436,805.056 747.016,805.753 C726.791704,807.409032 708.209158,817.534961 695.854,833.632 L657.762,883.51 C648.653275,895.365849 634.565859,902.332929 619.615,902.376 L404.459,902.376 C389.50807,902.333233 375.420527,895.366091 366.312,883.51 L328.3,833.729 C316.02916,817.632194 297.538598,807.457048 277.374,805.705 C269.158,805.013 261.819,804.075 254.934,802.839 C240.178544,800.331946 225.877639,795.645749 212.5,788.934 C186.079944,775.492048 164.594231,754.030139 151.123,727.625 C144.41244,714.279691 139.725108,700.010089 137.215,685.285 C134.181,668.429 133.363,651.014 132.963,636.202 C132.774,629.211 132.663,621.784 132.605,612.122 C132.55,603.007 132.55,593.69 132.55,584.68 L132.55,582.78 L132.042,471.432 L132.042,361.322 C132.042,356.467 132.184,350.663 132.321,345.051 C132.446,339.927 132.575,334.629 132.605,329.797 C132.663,320.155 132.773,312.738 132.962,305.754 C133.362,290.962 134.181,273.574 137.209,256.767 C139.718729,242.058733 144.406205,227.806556 151.117,214.48 C164.597257,188.107113 186.081576,166.679504 212.49,153.269 C225.864933,146.568145 240.160347,141.889505 254.909,139.386 C271.786,136.359 289.229,135.542 304.067,135.142 C310.976,134.955 318.413,134.842 328.178,134.785 C336.432,134.734 344.813,134.73 353.388,134.73 L357.52,134.73 L469.106,134.323 L553.975,134.323 M554.039,102.323 L469.039,102.323 L357.4,102.73 L353.385,102.73 C344.917,102.73 336.448,102.73 327.985,102.785 C319.723,102.836 311.465,102.93 303.206,103.153 C285.211,103.638 267.058,104.696 249.261,107.888 C231.432666,110.929866 214.156379,116.608416 198,124.737 C165.558915,141.211497 139.168587,167.536711 122.614,199.937 C114.463083,216.053387 108.76682,233.29756 105.714,251.098 C102.514,268.844 101.459,286.945 100.972,304.89 C100.75,313.127 100.654,321.366 100.604,329.606 C100.544,339.39 100.041,351.543 100.041,361.326 L100.041,471.5 L100.549,582.928 C100.549,592.728 100.549,602.52 100.604,612.316 C100.654,620.568 100.75,628.816 100.973,637.067 C101.459,655.043 102.52,673.176 105.719,690.953 C108.771359,708.764807 114.464374,726.021474 122.61,742.153 C139.153922,774.584491 165.542522,800.944385 197.992,817.453 C214.153982,825.596721 231.439576,831.285899 249.279,834.333 C257.685,835.842 266.171,836.871 274.679,837.589 C285.847217,838.568568 296.082376,844.219096 302.862,853.148 L340.877,902.925 C356.011454,922.742047 379.520743,934.369 404.456,934.369 L619.615,934.369 C644.550257,934.369 668.059546,922.742047 683.194,902.925 L721.286,853.048 C728.135914,844.127982 738.444668,838.528115 749.656,837.637 C758.356,836.917 767.029,835.875 775.62,834.329 C793.417689,831.280764 810.660895,825.593809 826.78,817.456 C859.18327,800.932643 885.521909,774.57265 902.019,742.156 C910.155009,726.012118 915.839455,708.745771 918.885,690.926 C922.075,673.156 923.133,655.026 923.618,637.061 C923.841,628.811 923.936,620.561 923.985,612.31 C924.041,602.51 924.041,592.718 924.041,582.922 L924.041,358.95 C924.041,349.168 924.041,339.385 923.985,329.602 C923.936,321.362 923.841,313.122 923.617,304.886 C923.133,286.933 922.074,268.826 918.881,251.073 C915.835057,233.285208 910.152869,216.051248 902.022,199.94 C885.516098,167.55594 859.178737,141.230831 826.787,124.74 C810.657437,116.607872 793.405394,110.926397 775.6,107.883 C757.845,104.695 739.734,103.638 721.781,103.153 C713.538,102.93 705.295,102.836 697.05,102.785 C688.598,102.734 680.15,102.73 671.694,102.73 L667.686,102.73 L554.039,102.323 Z" id="Shape" fill-opacity="0.2" fill="#FFFFFF" fill-rule="nonzero"></path>
        <g id="Path" fill="black" fill-opacity="1">
            <use filter="url(#filter-4)" xlink:href="#path-3"></use>
        </g>
        <g id="Path" fill="black" fill-opacity="1">
            <use filter="url(#filter-6)" xlink:href="#path-5"></use>
        </g>
        <g id="Group" filter="url(#filter-7)" transform="translate(314.000000, 203.000000)">
            <path d="M411.431,355.921 C412.116,413.294 387.355,468.521 343.547,507.313 C308.682,538.525 264.7,556.455 218.954,558.2 C197.867331,575.462117 171.908665,585.695018 144.715,587.465 C141.784,587.665 138.853,587.789 135.921,587.789 C65.79,587.789 6.775,530.942 1.403,458.358 C1.343,457.524 1.284,456.35 1.224,454.852 C1.14009697,454.320667 1.09530996,453.783891 1.09,453.246 C-0.279,422.683 0.406,397.433 1.284,381.356 C2.084,366.531 2.593,339.856 2.653,333.651 L2.653,333.265 C2.99691253,311.793385 8.10991693,290.666761 17.622,271.414 C14.9335844,248.895035 15.0185527,226.131268 17.875,203.633 L18.247,199.926 C18.322,199.479 18.322,198.953 18.366,198.506 C18.441,198.12 18.5,197.672 18.56,197.224 C20.926,176.947 25.048,143.724 42.517,109.675 C71.593,52.565 126.755,18.496 190.011,18.496 L192.69,18.496 C212.526597,6.95071067 235.063234,0.855727492 258.015,0.829 L260.455,0.829 C333.7,2.188 393.277,65 393.277,140.886 C393.277,141.72 390.777,232.759 387.965,263.909 C403.128,291.429 411.119,322.64 411.431,355.921" id="Path" fill="#FFFFFF"></path>
            <path d="M349.176,356.267 C349.682,394.273 332.837,431.446 302.943,457.932 C273.634869,484.801379 233.922901,497.295122 194.51,492.046 C193.2,493.868 191.831,495.618333 190.403,497.297 C177.927208,512.193186 159.873377,521.301829 140.479,522.485 C138.991,522.609 137.548,522.671 136.06,522.671 C98.308,522.671 66.553,491.984 63.741,452.881 C63.681,452.109 63.622,451.322 63.622,450.488 L63.562,449.901 C62.312,422.056 62.937,399.138 63.681,384.822 C64.619,368.251 65.125,340.082 65.181,333.998 C65.4081849,315.805594 72.0597695,298.279258 83.96,284.517 C78.276,264.131 76.46,239.653 79.96,210.712 L80.406,206.496 C80.466,206.172 80.466,205.848 80.525,205.523 C82.519,188.566 85.51,163.502 97.801,139.549 C116.149,103.549 149.838,82.887 190.149,82.887 C192.396,82.887 194.762,82.948 197.202,83.087 C201.471049,83.3448209 205.720122,83.8658108 209.925,84.647 C223.019,72.401 240.425,64.818 259.525,65.219 C298.958,65.93 331.025,99.719 331.025,140.519 C331.025,141.414 327.525,250.399 325.847,259.85 C324.857524,265.625163 323.225383,271.271577 320.981,276.684 C339.135,298.444 348.926,325.578 349.181,356.264" id="Path" fill="#F9A83A"></path>
            <path d="M191.761,278.5 C173.056,275.473 163.071,262.485 168.026,222.3 L168.607,217.451 C172.773,182.533 176.27,174.765 192.46,175.677 C197.192,175.985 202.653,179.09 208.099,183.738 C213.159,189.807 224.393,197.668 230.717,213.238 C235.256,224.666 236.817,232.125 237.473,240.138 L238.473,249.975 L238.473,249.929 C239.812,256.662 244.782,262.191 251.657,263.396 C255.982703,264.153272 260.43103,263.13462 263.996118,260.570383 C267.561206,258.006147 269.941946,254.112904 270.6,249.771 C270.808,248.671 274.811,142.841 274.811,141.111 C274.967438,131.94088 267.729036,124.345658 258.562,124.060793 C249.544,124.015 242.223,131.629 242.223,140.926 C242.223,141.126 242.178,155.736 241.881,170.469 C229.024,155.952 212.566,142.949 194.144,141.821 C144.831,139.088 139.444,186.144 136.2,213.263 L135.709,218.063 C129.058,271.652 146.289,305.463 186.749,312.021 C230.72,319.187 260.079,329.673 260.349,357.749 C260.513,368.668 254.977,379.864 245.32,388.482 C233.684,398.752 218.12,403.369 203.447,400.867 C199.050014,400.101339 194.728031,398.954343 190.53,397.439 C184.772,394.103 170.263,384.945 162.898,374.366 C156.698,365.44 154.535,351.417 153.865,342.522 C153.94,338.537 153.955,335.897 153.955,335.603 C154.243593,326.443219 147.099581,318.760685 137.943,318.384 C128.881,318.168 121.443,325.735 121.277,335.094 C121.277,335.402 120.877,368.56 119.7,388.528 C118.019,420.697 119.7,447.939 119.7,449.128 C120.37,458.472 128.107,465.514 137.125,464.896 C146.113,464.402 152.958,456.309 152.333,446.951 C152.333,446.796 151.533,433.592 151.633,415.351 C165.633895,424.769627 181.418339,431.215529 198.01,434.29 C222.41,438.537 247.368,431.217 266.43,414.214 C283.498,399.063 293.274,378.354 293.007,357.397 C292.426,294.835 224.393,283.84 191.761,278.497" id="Path" fill="#FFFFFF"></path>
        </g>
    </g>
</svg>